<?xml version="1.0" encoding="UTF-8" standalone="no"?>
<!-- Created with Inkscape (http://www.inkscape.org/) -->

<svg
   version="1.1"
   id="svg868"
   width="433.32455"
   height="192.84282"
   viewBox="0 0 433.32455 192.84282"
   xmlns="http://www.w3.org/2000/svg"
   xmlns:svg="http://www.w3.org/2000/svg">
  <defs
     id="defs872" />
  <g
     id="g874"
     transform="translate(-40.097491,-343.35321)">
    <g
       id="g3810"
       transform="translate(-30.056477,1.228222)">
      <path
         id="path2667"
         style="fill:#7e7e7e"
         d="m 351.14258,342.125 c -3.46092,-0.006 -15.41522,3.57873 -19.85547,5.95508 -2.97475,1.59204 -6.06141,6.91538 -6.06641,10.45898 -0.002,1.60669 -0.74085,3.73429 -1.64062,4.72852 -1.51475,1.67383 -1.51396,1.97723 0.0117,4.08008 0.90624,1.24908 2.83607,3.97014 4.28711,6.04687 l 2.63671,3.77539 -2.14843,2.28906 c -2.9385,3.1279 -2.79151,5.01536 0.34375,4.41602 2.67418,-0.5112 4.25119,0.73805 4.82031,3.82031 0.19514,1.05684 0.96585,3.19225 1.71289,4.74414 1.15992,2.40962 1.14845,2.95463 -0.084,3.73438 -1.21719,0.77012 -1.19123,0.91483 0.16992,0.92773 1.15599,0.011 2.81133,3.41254 5.83594,11.99024 4.60205,13.05122 6.76174,16.55774 11.46484,18.60547 4.27032,1.8593 5.37029,1.77245 14.62891,-1.15235 14.20309,-4.48675 18.30718,-10.83422 14.47265,-22.3789 -0.94466,-2.84411 -1.48819,-6.04364 -1.20898,-7.11133 0.27921,-1.0677 -0.10123,-2.28174 -0.84375,-2.69727 -0.74252,-0.41554 -3.1977,-5.91562 -5.45703,-12.22265 l -4.10743,-11.4668 2.55469,-1.86328 c 2.90492,-2.11608 2.52548,-3.6875 -0.89062,-3.6875 -2.69343,0 -5.25029,-2.45579 -3.61133,-3.46875 1.91918,-1.18612 1.09025,-3.46905 -3.55078,-9.77344 -5.47245,-7.4338 -8.66164,-9.741 -13.47461,-9.75 z m 7.64648,22.12305 c 0.53313,-0.013 1.0333,0.002 1.49219,0.0469 1.0489,0.10345 1.88442,0.3655 2.42773,0.81641 1.55504,1.29057 2.05337,7.69308 0.74219,9.54101 -0.40408,0.56949 -5.00937,2.49166 -10.23437,4.27149 -5.225,1.77982 -10.21948,3.48573 -11.09766,3.79101 -1.88717,0.65604 -6.90234,-4.82324 -6.90234,-7.54101 0,-4.26397 15.57539,-10.73073 23.57226,-10.92578 z m 8.53711,36.16015 c 1.81675,0.0323 2.7794,1.0091 4.26367,2.95508 1.44478,1.8942 2.62696,3.95372 2.62696,4.57813 0,1.46192 -6.01119,4.51465 -12.93164,6.5664 -8.68362,2.57448 -9.06836,2.38429 -9.06836,-4.48437 v -4.76172 l 5.72461,-2.14258 c 4.89772,-1.83247 7.56802,-2.74325 9.38476,-2.71094 z M 115.2168,483.11719 v 25.33398 c 0,13.93334 0.31912,25.6531 0.70898,26.04297 0.38987,0.38986 1.62737,0.57672 2.75,0.41602 1.98646,-0.28435 2.04881,-0.98295 2.3086,-26.04297 l 0.26562,-25.75 h -3.01562 z" />
      <path
         style="fill:#178bc6"
         d="m 185.21653,493.93908 c -6.10576,-3.14969 -9.36211,-9.28222 -8.60098,-16.19783 1.17126,-10.64199 7.56104,-14.71878 25.63929,-16.35831 7.12294,-0.64599 8.49376,-1.05835 8.79826,-2.64665 0.54342,-2.8345 -1.74631,-6.33853 -5.03104,-7.69911 -3.44737,-1.42795 -13.8298,-1.39574 -18.79893,0.0583 -5.42738,1.58815 -6.0066,1.35261 -6.0066,-2.44259 0,-5.02779 2.38012,-5.94845 15.5,-5.99563 12.83808,-0.0462 17.08812,1.45364 20.73424,7.31691 2.15737,3.46924 2.26576,4.6003 2.26576,23.64354 v 20 l -3.6846,0.30647 c -2.81104,0.2338 -3.92844,-0.14917 -4.71311,-1.61535 -1.00115,-1.87066 -1.15883,-1.85732 -5.92466,0.50126 -7.28998,3.60777 -14.58154,4.01575 -20.17763,1.12897 z m 20.07069,-8.57135 5.42931,-2.75 0.29381,-7.25 0.29381,-7.25 h -4.99459 c -12.43465,0 -21.09303,4.39243 -21.09303,10.70057 0,8.67495 9.65442,11.82537 20.07069,6.54943 z m 203.42931,9.39952 c -3.71908,-1.72878 -6.9876,-5.21346 -8.58198,-9.14952 -0.72977,-1.80158 -1.40178,-10.40288 -1.68225,-21.53159 -0.51461,-20.41914 -0.24572,-21.44419 5.45376,-20.79067 l 2.81047,0.32226 0.5,19 c 0.55762,21.18956 1.0222,22.81475 7.03951,24.62539 4.27383,1.28602 10.01479,-0.0144 15.05945,-3.41122 l 3.40104,-2.29008 0.5,-18.96205 0.5,-18.96204 h 3.5 3.5 l 0.26717,25.25 0.26717,25.25 h -4.01717 c -2.83103,0 -4.01717,-0.42548 -4.01717,-1.44098 0,-2.58878 -1.70404,-2.58364 -6.36098,0.0192 -5.57206,3.11428 -13.85946,4.06063 -18.13902,2.07133 z m 64.79249,-0.0984 c -2.35559,-0.73624 -6.25237,-1.08457 -8.8534,-0.79139 -3.33513,0.37591 -4.89454,0.13101 -5.52718,-0.86805 -1.1246,-1.77595 -1.16418,-66.94551 -0.0417,-68.71589 0.50491,-0.79637 2.19283,-1.19497 4.23468,-1 l 3.39511,0.32421 0.28174,11.75 c 0.15495,6.4625 0.60495,11.74812 1,11.74581 0.39504,-0.002 2.93203,-1.1273 5.63774,-2.5 5.65567,-2.86931 14.01974,-3.36309 18.38018,-1.08509 7.75479,4.05129 11.39644,11.864 11.46153,24.58928 0.0538,10.52644 -2.55931,17.3874 -8.5877,22.54748 -6.26639,5.3638 -12.99691,6.62412 -21.381,4.00367 z m 13.67262,-8.39278 c 5.15061,-2.7623 7.48321,-8.10146 7.49395,-17.15317 0.005,-4.12786 -0.59278,-9.22753 -1.32817,-11.33259 -2.49177,-7.1327 -11.11294,-9.68385 -19.63089,-5.80913 -6.48075,2.94803 -6.58791,3.27699 -6.27815,19.2729 l 0.27815,14.36365 3.5,1.19356 c 5.23654,1.78575 12.06426,1.55687 15.96511,-0.53519 z m -250.35812,6.25984 c -0.33385,-0.86995 -0.60699,-11.58394 -0.60699,-23.80884 0,-24.5561 0.32358,-26.03982 5.54931,-25.44513 2.37372,0.27013 3.01256,0.87352 3.26711,3.08579 0.39079,3.39627 1.18766,3.41796 6.70835,0.18261 2.55532,-1.49751 6.64905,-2.80147 9.82378,-3.12913 4.89961,-0.50569 5.56156,-0.33995 6.63218,1.66052 0.65413,1.22226 0.92989,3.25599 0.61279,4.51941 -0.52443,2.08948 -1.24085,2.33068 -7.92523,2.66822 -5.9619,0.30107 -8.1337,0.89059 -11.50849,3.12392 l -4.1598,2.75283 v 17.98581 17.98581 h -3.89301 c -2.62743,0 -4.09034,-0.51423 -4.5,-1.58179 z m 40.87138,0.38601 c -0.27806,-0.7246 -0.38694,-16.61448 -0.24197,-35.31084 l 0.2636,-33.99335 h 4 4 l 0.2695,21.75 c 0.14823,11.9625 0.65422,21.75 1.12442,21.75 0.47021,0 6.05096,-5.4 12.40168,-12 10.99656,-11.42821 11.7383,-12 15.56656,-12 2.21089,0 4.24785,0.36898 4.52656,0.81995 0.27872,0.45097 -4.19472,5.50543 -9.94098,11.23213 -5.74626,5.7267 -10.44774,11.04803 -10.44774,11.82518 0,0.77715 4.95,6.70219 11,13.16675 6.05,6.46457 11,12.24926 11,12.85487 0,0.64836 -1.9711,1.10112 -4.79374,1.10112 h -4.79374 l -9.45626,-10.4987 c -5.20094,-5.77428 -9.94032,-10.49928 -10.53195,-10.5 -0.59162,-7.1e-4 -2.03329,1.01803 -3.2037,2.26388 -1.73565,1.84751 -2.18266,3.73745 -2.42432,10.25 l -0.29629,7.98482 -3.75804,0.31084 c -2.42591,0.20066 -3.93724,-0.15616 -4.26359,-1.00662 z m 48.76263,-50.55419 0.259,-51.75 3.74409,-0.31001 c 3.17411,-0.26282 3.91743,0.0704 4.88263,2.18879 0.92852,2.03786 0.83443,2.80292 -0.51,4.14736 -1.46418,1.46418 -1.61881,4.68626 -1.38263,28.8112 l 0.26591,27.16266 h 27 27 v -28 -28 l -3.5,-0.5 c -2.93333,-0.41905 -3.5,-0.90476 -3.5,-3 0,-2.44445 0.16667,-2.5 7.5,-2.5 h 7.5 v 51.5 51.5 h -3.5 -3.5 l -0.27485,-16.26603 -0.27485,-16.26602 -27.22515,0.26602 -27.22515,0.26603 -0.27477,16.25 -0.27477,16.25 h -3.48423 -3.48423 z m -253.380212,34.83904 -2.360784,-1.91095 -0.281283,-42.63469 -0.281283,-42.63468 2.95436,-2.95436 2.95436,-2.95436 h 41.011822 c 23.54652,0 42.0783,0.40547 43.51612,0.95213 5.06698,1.92646 5.1259,2.46919 5.1259,47.21731 v 41.66943 l -2.42431,2.58057 -2.42432,2.58056 H 118.153 c -40.561178,0 -42.833931,-0.0964 -45.075682,-1.91096 z M 104.99989,456.68 c 0.1591,-6.70254 0.76097,-12.51322 1.37245,-13.25 0.74702,-0.9001 3.83792,-1.31227 9.84091,-1.31227 14.01928,0 21.7785,-3.89444 26.4544,-13.27775 4.92575,-9.88469 2.77314,-20.95059 -5.44357,-27.98379 -5.69517,-4.87486 -11.04202,-5.85637 -30.04696,-5.51564 l -15.460586,0.27718 -0.263065,35.49476 c -0.144686,19.52212 -0.03801,36.08124 0.237055,36.79806 0.355204,0.92564 2.31489,1.21692 6.763065,1.00523 l 6.262941,-0.29805 z m 0.82363,-28.14406 c -0.33384,-0.86998 -0.60699,-5.53988 -0.60699,-10.37755 0,-11.06075 0.31583,-11.37432 10.96871,-10.89055 7.4121,0.3366 8.23905,0.59611 11.13834,3.49539 5.25481,5.25482 4.01456,12.99731 -2.80198,17.4918 -3.79001,2.49895 -17.76636,2.70892 -18.69808,0.28091 z"
         id="path2665" />
    </g>
  </g>
</svg>
